<svg xmlns="http://www.w3.org/2000/svg">
    <symbol id="cls-btn" viewBox="0 0 24 24">
        <line x1="4" y1="4" x2="20" y2="20" stroke="#b9b2ab" stroke-width="3" stroke-linecap="round" />
        <line x1="20" y1="4" x2="4" y2="20" stroke="#b9b2ab" stroke-width="3" stroke-linecap="round" />
    </symbol>

    <symbol id="burger-menu" viewBox="0 0 28 28">
        <line x1="4" y1="6" x2="24" y2="6" stroke="#111111" stroke-width="3" stroke-linecap="round"/>
        <line x1="4" y1="14" x2="24" y2="14" stroke="#111111" stroke-width="3" stroke-linecap="round"/>
        <line x1="4" y1="22" x2="24" y2="22" stroke="#111111" stroke-width="3" stroke-linecap="round"/>
    </symbol>

    <symbol id="instagram" viewBox="0 0 25 25" fill="none" stroke="#fff" stroke-width="2" stroke-linecap="round" stroke-linejoin="round">
        <rect x="2" y="2" width="20" height="20" rx="5" ry="5"/>
        <path d="M16 11.37a4 4 0 1 1-7.99.01A4 4 0 0 1 16 11.37z"/>
        <line x1="17.5" y1="6.5" x2="17.5" y2="6.5"/>
    </symbol>

    <symbol id="mail" viewBox="0 0 24 24" fill="none" stroke="#fff" stroke-width="3" stroke-linecap="round" stroke-linejoin="round">
        <rect x="2" y="4" width="20" height="16" rx="2" ry="2"/>
        <polyline points="2,4 12,13 22,4"/>
    </symbol>

    <symbol id="github" viewBox="0 0 640 640">
    <path fill="#fff" d="M237.9 461.4C237.9 463.4 235.6 465 232.7 465C229.4 465.3 227.1 463.7 227.1 461.4C227.1 459.4 229.4 457.8 232.3 457.8C235.3 457.5 237.9 459.1 237.9 461.4zM206.8 456.9C206.1 458.9 208.1 461.2 211.1 461.8C213.7 462.8 216.7 461.8 217.3 459.8C217.9 457.8 216 455.5 213 454.6C210.4 453.9 207.5 454.9 206.8 456.9zM251 455.2C248.1 455.9 246.1 457.8 246.4 460.1C246.7 462.1 249.3 463.4 252.3 462.7C255.2 462 257.2 460.1 256.9 458.1C256.6 456.2 253.9 454.9 251 455.2zM316.8 72C178.1 72 72 177.3 72 316C72 426.9 141.8 521.8 241.5 555.2C254.3 557.5 258.8 549.6 258.8 543.1C258.8 536.9 258.5 502.7 258.5 481.7C258.5 481.7 188.5 496.7 173.8 451.9C173.8 451.9 162.4 422.8 146 415.3C146 415.3 123.1 399.6 147.6 399.9C147.6 399.9 172.5 401.9 186.2 425.7C208.1 464.3 244.8 453.2 259.1 446.6C261.4 430.6 267.9 419.5 275.1 412.9C219.2 406.7 162.8 398.6 162.8 302.4C162.8 274.9 170.4 261.1 186.4 243.5C183.8 237 175.3 210.2 189 175.6C209.9 169.1 258 202.6 258 202.6C278 197 299.5 194.1 320.8 194.1C342.1 194.1 363.6 197 383.6 202.6C383.6 202.6 431.7 169 452.6 175.6C466.3 210.3 457.8 237 455.2 243.5C471.2 261.2 481 275 481 302.4C481 398.9 422.1 406.6 366.2 412.9C375.4 420.8 383.2 435.8 383.2 459.3C383.2 493 382.9 534.7 382.9 542.9C382.9 549.4 387.5 557.3 400.2 555C500.2 521.8 568 426.9 568 316C568 177.3 455.5 72 316.8 72zM169.2 416.9C167.9 417.9 168.2 420.2 169.9 422.1C171.5 423.7 173.8 424.4 175.1 423.1C176.4 422.1 176.1 419.8 174.4 417.9C172.8 416.3 170.5 415.6 169.2 416.9zM158.4 408.8C157.7 410.1 158.7 411.7 160.7 412.7C162.3 413.7 164.3 413.4 165 412C165.7 410.7 164.7 409.1 162.7 408.1C160.7 407.5 159.1 407.8 158.4 408.8zM190.8 444.4C189.2 445.7 189.8 448.7 192.1 450.6C194.4 452.9 197.3 453.2 198.6 451.6C199.9 450.3 199.3 447.3 197.3 445.4C195.1 443.1 192.1 442.8 190.8 444.4zM179.4 429.7C177.8 430.7 177.8 433.3 179.4 435.6C181 437.9 183.7 438.9 185 437.9C186.6 436.6 186.6 434 185 431.7C183.6 429.4 181 428.4 179.4 429.7z"/>
    </symbol>

    <symbol id="php-icon" viewBox="0 0 640 640">
    <path fill="rgb(39, 39, 38)" d="M320 168.5C491.4 168.5 623.2 240.7 623.2 320C623.2 399.3 491.3 
    471.5 320 471.5C148.6 471.5 16.8 399.3 16.8 320C16.8 240.7 148.7 168.5 320 168.5zM320 151.7C143.3 
    151.7 0 227 0 320C0 413 143.3 488.3 320 488.3C496.7 488.3 640 413 640 320C640 227 496.7 151.7 320 
    151.7zM218.2 306.5C210.3 347 182.4 342.8 148.1 342.8L161.8 272.2C199.8 272.2 225.6 268.1 218.2 
    306.5zM97.4 414.3L134.1 414.3L142.8 369.5C183.9 369.5 209.4 372.5 233 350.4C259.1 326.4 265.9 283.7 
    247.3 262.3C237.6 251.1 222 245.6 200.8 245.6L130.1 245.6L97.4 414.3zM283.1 200.7L319.6 200.7L310.9 
    245.5C342.4 245.5 371.6 243.2 385.7 256.2C400.5 269.8 393.4 287.2 377.4 369.3L340.4 369.3C355.8 289.9 
    358.7 283.3 353.1 277.3C347.7 271.5 335.4 272.7 305.7 272.7L286.9 369.3L250.4 369.3L283.1 200.7zM505 
    306.5C497 347.6 468.3 342.8 434.9 342.8L448.6 272.2C486.8 272.2 512.4 268.1 505 306.5zM384.2 414.3L421 
    414.3L429.7 369.5C472.9 369.5 496.8 372 519.9 350.4C546 326.4 552.8 283.7 534.2 262.3C524.5 251.1 
    508.9 245.6 487.7 245.6L417 245.6L384.2 414.3z"/>
    </symbol>
</svg>